<svg xmlns="http://www.w3.org/2000/svg" viewBox="0 0 182 92"><defs><style>.cls-1{fill:none;stroke:#101010;stroke-linecap:round;stroke-linejoin:round;stroke-width:2px;}</style></defs><g id="Слой_2" data-name="Слой 2"><g id="Слой_1-2" data-name="Слой 1"><path class="cls-1" d="M83.89,43.32a6.5,6.5,0,0,0-4.2,1.33A7.82,7.82,0,0,0,77.2,48.3H89.41a4.61,4.61,0,0,0-1.5-3.65A5.84,5.84,0,0,0,83.89,43.32Z"/><path class="cls-1" d="M7.28,90.34,25.3,1H10.78A9.81,9.81,0,0,0,1,10.78V81.22A9.82,9.82,0,0,0,7.28,90.34Z"/><path class="cls-1" d="M37.07,45.77q-5.45,0-6.89,7.1L22.54,91H32.9l7.79-38.95A16.61,16.61,0,0,0,41,49.8C41,47.12,39.67,45.77,37.07,45.77Z"/><path class="cls-1" d="M171.22,1H40.67L33.46,36.36a16.57,16.57,0,0,1,4.84-2.67,16.16,16.16,0,0,1,5.25-.88,14,14,0,0,1,9.66,3.31q3.72,3.32,3.72,9.52a22.47,22.47,0,0,1-.48,4.57L48.31,91H171.22A9.81,9.81,0,0,0,181,81.22V10.78A9.81,9.81,0,0,0,171.22,1Zm-68.5,54.73H76.58a4.74,4.74,0,0,0,2.25,3.35,9.93,9.93,0,0,0,4.92,1,13.21,13.21,0,0,0,8.12-2.59l6.41,9.35A28.32,28.32,0,0,1,82,71.5a25.76,25.76,0,0,1-10.74-2.12,16.54,16.54,0,0,1-7.23-6,16.22,16.22,0,0,1-2.56-9.15,21.15,21.15,0,0,1,2.89-11,20.22,20.22,0,0,1,8.16-7.65,25.58,25.58,0,0,1,12.07-2.76,23,23,0,0,1,10.17,2.08,15.14,15.14,0,0,1,6.56,5.8,16.29,16.29,0,0,1,2.24,8.56A28,28,0,0,1,102.72,55.73Zm52.13,15.09H139.64l-2.73-17.27L128,70.82H112.82l-6-37.33h14.05L123.53,53l10.58-19.52h13.24l2.73,19.65,10.58-19.65H175Z"/></g></g></svg>