<svg xmlns="http://www.w3.org/2000/svg" viewBox="0 0 180 90.05"><defs><style>.cls-1{fill:#101010;}</style></defs><g id="Слой_2" data-name="Слой 2"><g id="Слой_1-2" data-name="Слой 1"><path class="cls-1" d="M170,2a8,8,0,0,1,8,8V80a8,8,0,0,1-8,8H10a8,8,0,0,1-8-8V10a8,8,0,0,1,8-8H170m0-2H10A10,10,0,0,0,0,10V80A10,10,0,0,0,10,90H170a10,10,0,0,0,10-10V10A10,10,0,0,0,170,0Z"/><path class="cls-1" d="M101.72,54.76H75.58a4.72,4.72,0,0,0,2.25,3.34,9.92,9.92,0,0,0,4.92,1,13.28,13.28,0,0,0,8.12-2.59l6.41,9.34A28.32,28.32,0,0,1,81,70.52a25.76,25.76,0,0,1-10.74-2.11,16.54,16.54,0,0,1-7.23-6,16.27,16.27,0,0,1-2.56-9.15,21.18,21.18,0,0,1,2.89-11,20.36,20.36,0,0,1,8.16-7.65,25.58,25.58,0,0,1,12.07-2.76,23.19,23.19,0,0,1,10.17,2.08,15.14,15.14,0,0,1,6.56,5.8,16.33,16.33,0,0,1,2.24,8.57A28,28,0,0,1,101.72,54.76Zm-23-11.09a7.92,7.92,0,0,0-2.49,3.65H88.41a4.64,4.64,0,0,0-1.5-3.65,5.89,5.89,0,0,0-4-1.33A6.56,6.56,0,0,0,78.69,43.67Z"/><path class="cls-1" d="M174,32.51,153.85,69.84H138.64l-2.73-17.26L127,69.84H111.82l-6-37.33h14.05L122.53,52l10.58-19.52h13.24l2.73,19.66,10.58-19.66Z"/><path class="cls-1" d="M52.21,35.14a14,14,0,0,0-9.66-3.31,16.29,16.29,0,0,0-10.09,3.55L39.67,0V0H24.3l-18,89.34a9.72,9.72,0,0,0,3.5.66H21.54v0l7.64-38.16q1.44-7.1,6.89-7.09c2.6,0,3.89,1.34,3.89,4a16.88,16.88,0,0,1-.27,2.26L31.9,90H47.31v0h0l8.14-40.82a22.47,22.47,0,0,0,.48-4.57Q55.93,38.45,52.21,35.14Z"/></g></g></svg>